<?xml version="1.0" encoding="iso-8859-1"?>
<!-- Generator: Adobe Illustrator 19.0.0, SVG Export Plug-In . SVG Version: 6.00 Build 0)  -->
<svg version="1.1" id="Capa_1" xmlns="http://www.w3.org/2000/svg" xmlns:xlink="http://www.w3.org/1999/xlink" x="0px" y="0px"
	 viewBox="0 0 436.767 436.767" style="enable-background:new 0 0 436.767 436.767;" xml:space="preserve">
<g>
	<path style="fill:#F4B844;" d="M218.384,0c120.61,0,218.384,97.774,218.384,218.384s-97.774,218.384-218.384,218.384
		S0,338.994,0,218.384C0,97.774,97.774,0,218.384,0C218.384,0,218.384,0,218.384,0z"/>
	<circle style="fill:#FEDB41;" cx="218.384" cy="218.384" r="164.571"/>
	<path style="fill:#F4B844;" d="M218.384,202.188c-15.581,0-28.212-12.631-28.212-28.212s12.631-28.212,28.212-28.212
		c15.581,0,28.212,12.631,28.212,28.212c0,5.771,4.678,10.449,10.449,10.449c5.771,0,10.449-4.678,10.449-10.449
		c-0.207-22.93-16.255-42.665-38.661-47.543v-12.539c0-5.771-4.678-10.449-10.449-10.449c-5.771,0-10.449,4.678-10.449,10.449
		v12.539c-26.274,6.731-42.117,33.488-35.385,59.762c5.406,21.101,24.066,36.119,45.834,36.891
		c15.581,0,28.212,12.631,28.212,28.212s-12.631,28.212-28.212,28.212s-28.212-12.631-28.212-28.212
		c0-5.771-4.678-10.449-10.449-10.449c-5.771,0-10.449,4.678-10.449,10.449c0.01,23.001,16.146,42.844,38.661,47.543v18.808
		c0,5.771,4.678,10.449,10.449,10.449c5.771,0,10.449-4.678,10.449-10.449v-18.808c26.274-6.731,42.117-33.488,35.385-59.762
		C258.812,217.978,240.152,202.959,218.384,202.188z"/>
</g>
<g>
</g>
<g>
</g>
<g>
</g>
<g>
</g>
<g>
</g>
<g>
</g>
<g>
</g>
<g>
</g>
<g>
</g>
<g>
</g>
<g>
</g>
<g>
</g>
<g>
</g>
<g>
</g>
<g>
</g>
</svg>
