<svg width="969" height="379" viewBox="0 0 969 379" fill="none" xmlns="http://www.w3.org/2000/svg">
<rect x="52" y="184" width="104" height="175" fill="#192A56"/>
<path d="M93.024 378.456C72.864 378.456 56.928 374.904 45.216 367.8C33.696 360.696 25.44 349.752 20.448 334.968C15.456 320.184 12.96 300.6 12.96 276.216C12.96 252.216 15.552 232.92 20.736 218.328C25.92 203.544 34.176 192.792 45.504 186.072C57.024 179.16 72.384 175.704 91.584 175.704C109.44 175.704 128.736 177.72 149.472 181.752L159.84 183.768L158.688 214.584C136.416 212.088 117.6 210.84 102.24 210.84C87.072 210.84 76.032 213.432 69.12 218.616C62.208 223.608 57.888 230.52 56.16 239.352C54.624 247.992 53.856 260.952 53.856 278.232C53.856 295.32 55.008 308.472 57.312 317.688C59.616 326.904 63.744 333.624 69.696 337.848C75.84 341.88 84.864 343.896 96.768 343.896C108.096 343.896 116.064 343.512 120.672 342.744V304.728H102.816V270.168H159.84V371.832C131.808 376.248 109.536 378.456 93.024 378.456ZM250.367 378.456C227.903 378.456 211.679 372.792 201.695 361.464C191.711 350.136 186.719 331.8 186.719 306.456C186.719 279.96 191.903 260.184 202.271 247.128C212.831 234.072 229.151 227.544 251.231 227.544C271.583 227.544 286.943 233.016 297.311 243.96C307.871 254.712 313.151 270.936 313.151 292.632L310.271 319.416H225.599C225.983 326.136 227.135 331.32 229.055 334.968C231.167 338.424 234.431 340.92 238.847 342.456C243.455 343.8 249.791 344.472 257.855 344.472C264.191 344.472 271.775 344.28 280.607 343.896C289.439 343.512 295.871 343.128 299.903 342.744L307.967 341.88L308.543 370.392C286.847 375.768 267.455 378.456 250.367 378.456ZM275.135 290.04C275.135 278.52 273.311 270.552 269.663 266.136C266.207 261.528 259.967 259.224 250.943 259.224C241.727 259.224 235.199 261.624 231.359 266.424C227.519 271.032 225.503 278.904 225.311 290.04H275.135ZM389.691 378.456C378.555 378.456 369.915 376.728 363.771 373.272C357.627 369.816 353.211 364.152 350.523 356.28C347.835 348.408 346.491 337.56 346.491 323.736V263.832H329.499V231H346.491V190.968H385.083V231H420.507V263.832H385.083V322.872C385.083 330.36 385.755 335.832 387.099 339.288C388.443 342.552 391.803 344.088 397.179 343.896L419.067 343.32L420.795 374.136C413.115 375.864 407.067 377.016 402.651 377.592C398.427 378.168 394.107 378.456 389.691 378.456ZM506.117 378.456C491.141 378.456 472.805 376.152 451.109 371.544L440.741 369.528L444.773 338.712C470.501 342.168 490.181 343.896 503.813 343.896C524.165 343.896 534.341 335.448 534.341 318.552C534.341 311.64 531.653 306.552 526.277 303.288C520.901 300.024 511.877 296.568 499.205 292.92C484.037 288.696 472.037 283.992 463.205 278.808C454.565 273.624 448.229 267.48 444.197 260.376C440.357 253.272 438.437 244.44 438.437 233.88C438.437 214.68 444.293 200.184 456.005 190.392C467.717 180.6 484.133 175.704 505.253 175.704C513.509 175.704 522.053 176.28 530.885 177.432C539.717 178.392 552.677 180.408 569.765 183.48L566.597 214.872C540.293 211.8 521.189 210.264 509.285 210.264C488.357 210.264 477.893 217.176 477.893 231C477.893 235.8 479.621 239.736 483.077 242.808C486.533 245.88 490.853 248.472 496.037 250.584C501.221 252.504 509.957 255.384 522.245 259.224C535.493 263.448 545.765 267.864 553.061 272.472C560.357 277.08 565.637 282.84 568.901 289.752C572.165 296.472 573.797 305.208 573.797 315.96C573.797 336.12 567.653 351.576 555.365 362.328C543.269 373.08 526.853 378.456 506.117 378.456ZM648.95 378.456C636.662 378.456 626.966 375.96 619.862 370.968C612.95 365.976 608.054 358.296 605.174 347.928C602.294 337.56 600.854 323.736 600.854 306.456V231H639.446V307.032C639.446 317.4 639.926 325.176 640.886 330.36C641.846 335.352 643.766 338.904 646.646 341.016C649.718 342.936 654.326 343.896 660.469 343.896C664.885 343.896 668.822 343.512 672.278 342.744C675.926 341.976 680.918 340.632 687.254 338.712V231H725.846V375H687.542V366.936C679.478 371.352 672.566 374.328 666.806 375.864C661.238 377.592 655.286 378.456 648.95 378.456ZM820.809 378.456C807.177 378.456 791.049 377.496 772.425 375.576L761.481 374.424V173.4H800.073V235.32C807.369 232.44 813.321 230.424 817.929 229.272C822.537 228.12 827.913 227.544 834.057 227.544C853.065 227.544 866.985 233.4 875.817 245.112C884.841 256.824 889.353 276.024 889.353 302.712C889.353 321.528 887.049 336.408 882.441 347.352C878.025 358.296 870.825 366.264 860.841 371.256C850.857 376.056 837.513 378.456 820.809 378.456ZM818.505 343.896C830.409 343.896 838.665 340.92 843.273 334.968C847.881 328.824 850.185 318.168 850.185 303C850.185 288.216 848.073 277.752 843.849 271.608C839.817 265.272 833.289 262.104 824.265 262.104C817.929 262.104 809.865 263.352 800.073 265.848V342.744C807.945 343.512 814.089 343.896 818.505 343.896Z" fill="white"/>
</svg>
