<svg width="969" height="385" viewBox="0 0 969 385" fill="none" xmlns="http://www.w3.org/2000/svg">
<rect x="52" y="184" width="111" height="175" fill="#DA0404"/>
<path d="M93.024 378.456C72.864 378.456 56.928 374.904 45.216 367.8C33.696 360.696 25.44 349.752 20.448 334.968C15.456 320.184 12.96 300.6 12.96 276.216C12.96 252.216 15.552 232.92 20.736 218.328C25.92 203.544 34.176 192.792 45.504 186.072C57.024 179.16 72.384 175.704 91.584 175.704C109.44 175.704 128.736 177.72 149.472 181.752L159.84 183.768L158.688 214.584C136.416 212.088 117.6 210.84 102.24 210.84C87.072 210.84 76.032 213.432 69.12 218.616C62.208 223.608 57.888 230.52 56.16 239.352C54.624 247.992 53.856 260.952 53.856 278.232C53.856 295.32 55.008 308.472 57.312 317.688C59.616 326.904 63.744 333.624 69.696 337.848C75.84 341.88 84.864 343.896 96.768 343.896C108.096 343.896 116.064 343.512 120.672 342.744V304.728H102.816V270.168H159.84V371.832C131.808 376.248 109.536 378.456 93.024 378.456ZM250.367 378.456C227.903 378.456 211.679 372.792 201.695 361.464C191.711 350.136 186.719 331.8 186.719 306.456C186.719 279.96 191.903 260.184 202.271 247.128C212.831 234.072 229.151 227.544 251.231 227.544C271.583 227.544 286.943 233.016 297.311 243.96C307.871 254.712 313.151 270.936 313.151 292.632L310.271 319.416H225.599C225.983 326.136 227.135 331.32 229.055 334.968C231.167 338.424 234.431 340.92 238.847 342.456C243.455 343.8 249.791 344.472 257.855 344.472C264.191 344.472 271.775 344.28 280.607 343.896C289.439 343.512 295.871 343.128 299.903 342.744L307.967 341.88L308.543 370.392C286.847 375.768 267.455 378.456 250.367 378.456ZM275.135 290.04C275.135 278.52 273.311 270.552 269.663 266.136C266.207 261.528 259.967 259.224 250.943 259.224C241.727 259.224 235.199 261.624 231.359 266.424C227.519 271.032 225.503 278.904 225.311 290.04H275.135ZM389.691 378.456C378.555 378.456 369.915 376.728 363.771 373.272C357.627 369.816 353.211 364.152 350.523 356.28C347.835 348.408 346.491 337.56 346.491 323.736V263.832H329.499V231H346.491V190.968H385.083V231H420.507V263.832H385.083V322.872C385.083 330.36 385.755 335.832 387.099 339.288C388.443 342.552 391.803 344.088 397.179 343.896L419.067 343.32L420.795 374.136C413.115 375.864 407.067 377.016 402.651 377.592C398.427 378.168 394.107 378.456 389.691 378.456ZM506.117 378.456C491.141 378.456 472.805 376.152 451.109 371.544L440.741 369.528L444.773 338.712C470.501 342.168 490.181 343.896 503.813 343.896C524.165 343.896 534.341 335.448 534.341 318.552C534.341 311.64 531.653 306.552 526.277 303.288C520.901 300.024 511.877 296.568 499.205 292.92C484.037 288.696 472.037 283.992 463.205 278.808C454.565 273.624 448.229 267.48 444.197 260.376C440.357 253.272 438.437 244.44 438.437 233.88C438.437 214.68 444.293 200.184 456.005 190.392C467.717 180.6 484.133 175.704 505.253 175.704C513.509 175.704 522.053 176.28 530.885 177.432C539.717 178.392 552.677 180.408 569.765 183.48L566.597 214.872C540.293 211.8 521.189 210.264 509.285 210.264C488.357 210.264 477.893 217.176 477.893 231C477.893 235.8 479.621 239.736 483.077 242.808C486.533 245.88 490.853 248.472 496.037 250.584C501.221 252.504 509.957 255.384 522.245 259.224C535.493 263.448 545.765 267.864 553.061 272.472C560.357 277.08 565.637 282.84 568.901 289.752C572.165 296.472 573.797 305.208 573.797 315.96C573.797 336.12 567.653 351.576 555.365 362.328C543.269 373.08 526.853 378.456 506.117 378.456ZM648.95 378.456C636.662 378.456 626.966 375.96 619.862 370.968C612.95 365.976 608.054 358.296 605.174 347.928C602.294 337.56 600.854 323.736 600.854 306.456V231H639.446V307.032C639.446 317.4 639.926 325.176 640.886 330.36C641.846 335.352 643.766 338.904 646.646 341.016C649.718 342.936 654.326 343.896 660.469 343.896C664.885 343.896 668.822 343.512 672.278 342.744C675.926 341.976 680.918 340.632 687.254 338.712V231H725.846V375H687.542V366.936C679.478 371.352 672.566 374.328 666.806 375.864C661.238 377.592 655.286 378.456 648.95 378.456ZM820.809 378.456C807.177 378.456 791.049 377.496 772.425 375.576L761.481 374.424V173.4H800.073V235.32C807.369 232.44 813.321 230.424 817.929 229.272C822.537 228.12 827.913 227.544 834.057 227.544C853.065 227.544 866.985 233.4 875.817 245.112C884.841 256.824 889.353 276.024 889.353 302.712C889.353 321.528 887.049 336.408 882.441 347.352C878.025 358.296 870.825 366.264 860.841 371.256C850.857 376.056 837.513 378.456 820.809 378.456ZM818.505 343.896C830.409 343.896 838.665 340.92 843.273 334.968C847.881 328.824 850.185 318.168 850.185 303C850.185 288.216 848.073 277.752 843.849 271.608C839.817 265.272 833.289 262.104 824.265 262.104C817.929 262.104 809.865 263.352 800.073 265.848V342.744C807.945 343.512 814.089 343.896 818.505 343.896Z" fill="black"/>
<path d="M45.216 367.8L42.0667 372.907L42.0855 372.919L42.1043 372.93L45.216 367.8ZM20.448 334.968L26.1327 333.048L26.1327 333.048L20.448 334.968ZM20.736 218.328L26.3898 220.337L26.3939 220.325L26.398 220.313L20.736 218.328ZM45.504 186.072L48.5652 191.232L48.5781 191.225L48.591 191.217L45.504 186.072ZM149.472 181.752L148.327 187.642L148.327 187.642L149.472 181.752ZM159.84 183.768L165.836 183.992L166.028 178.859L160.985 177.878L159.84 183.768ZM158.688 214.584L158.02 220.547L164.442 221.266L164.684 214.808L158.688 214.584ZM69.12 218.616L72.6329 223.48L72.6768 223.448L72.72 223.416L69.12 218.616ZM56.16 239.352L50.2716 238.2L50.2617 238.251L50.2526 238.302L56.16 239.352ZM57.312 317.688L63.1329 316.233L63.1329 316.233L57.312 317.688ZM69.696 337.848L66.2235 342.741L66.3127 342.804L66.4041 342.864L69.696 337.848ZM120.672 342.744L121.658 348.662L126.672 347.827V342.744H120.672ZM120.672 304.728H126.672V298.728H120.672V304.728ZM102.816 304.728H96.816V310.728H102.816V304.728ZM102.816 270.168V264.168H96.816V270.168H102.816ZM159.84 270.168H165.84V264.168H159.84V270.168ZM159.84 371.832L160.774 377.759L165.84 376.961V371.832H159.84ZM93.024 372.456C73.4765 372.456 58.7592 368.997 48.3277 362.67L42.1043 372.93C55.0968 380.811 72.2515 384.456 93.024 384.456V372.456ZM48.3653 362.693C38.2151 356.434 30.7493 346.721 26.1327 333.048L14.7633 336.887C20.1307 352.783 29.1769 364.958 42.0667 372.907L48.3653 362.693ZM26.1327 333.048C21.4327 319.129 18.96 300.272 18.96 276.216H6.96C6.96 300.928 9.47928 321.239 14.7633 336.887L26.1327 333.048ZM18.96 276.216C18.96 252.566 21.525 234.03 26.3898 220.337L15.0822 216.319C9.57903 231.81 6.96 251.866 6.96 276.216H18.96ZM26.398 220.313C31.2078 206.597 38.6709 197.102 48.5652 191.232L42.4428 180.912C29.6811 188.482 20.6323 200.491 15.074 216.343L26.398 220.313ZM48.591 191.217C58.8613 185.055 73.0299 181.704 91.584 181.704V169.704C71.7381 169.704 55.1867 173.265 42.417 180.927L48.591 191.217ZM91.584 181.704C108.993 181.704 127.902 183.67 148.327 187.642L150.617 175.862C129.57 171.77 109.887 169.704 91.584 169.704V181.704ZM148.327 187.642L158.695 189.658L160.985 177.878L150.617 175.862L148.327 187.642ZM153.844 183.544L152.692 214.36L164.684 214.808L165.836 183.992L153.844 183.544ZM159.356 208.621C136.953 206.111 117.899 204.84 102.24 204.84V216.84C117.301 216.84 135.879 218.065 158.02 220.547L159.356 208.621ZM102.24 204.84C86.6463 204.84 74.0006 207.456 65.52 213.816L72.72 223.416C78.0634 219.408 87.4977 216.84 102.24 216.84V204.84ZM65.6071 213.752C57.3877 219.688 52.2741 227.965 50.2716 238.2L62.0484 240.504C63.5019 233.075 67.0283 227.528 72.6329 223.48L65.6071 213.752ZM50.2526 238.302C48.6211 247.479 47.856 260.869 47.856 278.232H59.856C59.856 261.035 60.6269 248.505 62.0674 240.402L50.2526 238.302ZM47.856 278.232C47.856 295.487 49.0093 309.216 51.4911 319.143L63.1329 316.233C61.0067 307.728 59.856 295.153 59.856 278.232H47.856ZM51.4911 319.143C54.0358 329.322 58.7888 337.465 66.2235 342.741L73.1685 332.955C68.6992 329.783 65.1962 324.486 63.1329 316.233L51.4911 319.143ZM66.4041 342.864C73.9602 347.823 84.3527 349.896 96.768 349.896V337.896C85.3753 337.896 77.7198 335.937 72.9879 332.832L66.4041 342.864ZM96.768 349.896C108.093 349.896 116.509 349.521 121.658 348.662L119.686 336.826C115.619 337.503 108.099 337.896 96.768 337.896V349.896ZM126.672 342.744V304.728H114.672V342.744H126.672ZM120.672 298.728H102.816V310.728H120.672V298.728ZM108.816 304.728V270.168H96.816V304.728H108.816ZM102.816 276.168H159.84V264.168H102.816V276.168ZM153.84 270.168V371.832H165.84V270.168H153.84ZM158.906 365.905C130.997 370.302 109.079 372.456 93.024 372.456V384.456C109.993 384.456 132.619 382.194 160.774 377.759L158.906 365.905ZM201.695 361.464L197.193 365.431L201.695 361.464ZM202.271 247.128L197.605 243.355L197.589 243.376L197.572 243.397L202.271 247.128ZM297.311 243.96L292.955 248.086L292.992 248.126L293.03 248.164L297.311 243.96ZM313.151 292.632L319.116 293.273L319.151 292.954V292.632H313.151ZM310.271 319.416V325.416H315.66L316.236 320.057L310.271 319.416ZM225.599 319.416V313.416H219.246L219.608 319.758L225.599 319.416ZM229.055 334.968L223.745 337.762L223.835 337.933L223.935 338.097L229.055 334.968ZM238.847 342.456L236.875 348.123L237.02 348.173L237.167 348.216L238.847 342.456ZM280.607 343.896L280.867 349.89L280.867 349.89L280.607 343.896ZM299.903 342.744L300.471 348.717L300.507 348.714L300.542 348.71L299.903 342.744ZM307.967 341.88L313.965 341.759L313.833 335.217L307.327 335.914L307.967 341.88ZM308.543 370.392L309.986 376.216L314.638 375.063L314.541 370.271L308.543 370.392ZM275.135 290.04V296.04H281.135V290.04H275.135ZM269.663 266.136L264.863 269.736L264.947 269.849L265.037 269.957L269.663 266.136ZM231.359 266.424L235.968 270.265L236.006 270.219L236.044 270.172L231.359 266.424ZM225.311 290.04L219.311 289.937L219.206 296.04H225.311V290.04ZM250.367 372.456C228.775 372.456 214.579 367.008 206.196 357.497L197.193 365.431C208.778 378.576 227.03 384.456 250.367 384.456V372.456ZM206.196 357.497C197.648 347.799 192.719 331.257 192.719 306.456H180.719C180.719 332.343 185.773 352.473 197.193 365.431L206.196 357.497ZM192.719 306.456C192.719 280.569 197.813 262.389 206.969 250.859L197.572 243.397C185.992 257.979 180.719 279.351 180.719 306.456H192.719ZM206.936 250.901C216.02 239.67 230.349 233.544 251.231 233.544V221.544C227.953 221.544 209.641 228.474 197.605 243.355L206.936 250.901ZM251.231 233.544C270.533 233.544 284.074 238.713 292.955 248.086L301.666 239.834C289.811 227.319 272.632 221.544 251.231 221.544V233.544ZM293.03 248.164C302.083 257.382 307.151 271.816 307.151 292.632H319.151C319.151 270.056 313.658 252.042 301.591 239.756L293.03 248.164ZM307.185 291.991L304.305 318.775L316.236 320.057L319.116 293.273L307.185 291.991ZM310.271 313.416H225.599V325.416H310.271V313.416ZM219.608 319.758C220.014 326.858 221.251 333.023 223.745 337.762L234.364 332.174C233.018 329.617 231.951 325.414 231.589 319.074L219.608 319.758ZM223.935 338.097C226.881 342.917 231.361 346.205 236.875 348.123L240.818 336.789C237.5 335.635 235.452 333.931 234.174 331.839L223.935 338.097ZM237.167 348.216C242.566 349.791 249.552 350.472 257.855 350.472V338.472C250.029 338.472 244.343 337.809 240.527 336.696L237.167 348.216ZM257.855 350.472C264.304 350.472 271.979 350.277 280.867 349.89L280.346 337.902C271.57 338.283 264.077 338.472 257.855 338.472V350.472ZM280.867 349.89C289.711 349.506 296.275 349.117 300.471 348.717L299.334 336.771C295.466 337.139 289.166 337.518 280.346 337.902L280.867 349.89ZM300.542 348.71L308.606 347.846L307.327 335.914L299.263 336.778L300.542 348.71ZM301.968 342.001L302.544 370.513L314.541 370.271L313.965 341.759L301.968 342.001ZM307.099 364.568C285.74 369.861 266.846 372.456 250.367 372.456V384.456C268.063 384.456 287.953 381.675 309.986 376.216L307.099 364.568ZM281.135 290.04C281.135 278.315 279.365 268.46 274.288 262.315L265.037 269.957C267.256 272.644 269.135 278.725 269.135 290.04H281.135ZM274.463 262.536C269.349 255.718 260.766 253.224 250.943 253.224V265.224C259.167 265.224 263.064 267.338 264.863 269.736L274.463 262.536ZM250.943 253.224C240.837 253.224 232.129 255.856 226.673 262.676L236.044 270.172C238.268 267.392 242.616 265.224 250.943 265.224V253.224ZM226.749 262.583C221.548 268.824 219.509 278.457 219.311 289.937L231.31 290.143C231.496 279.351 233.489 273.24 235.968 270.265L226.749 262.583ZM225.311 296.04H275.135V284.04H225.311V296.04ZM363.771 373.272L360.829 378.501L360.829 378.501L363.771 373.272ZM350.523 356.28L344.845 358.219L344.845 358.219L350.523 356.28ZM346.491 263.832H352.491V257.832H346.491V263.832ZM329.499 263.832H323.499V269.832H329.499V263.832ZM329.499 231V225H323.499V231H329.499ZM346.491 231V237H352.491V231H346.491ZM346.491 190.968V184.968H340.491V190.968H346.491ZM385.083 190.968H391.083V184.968H385.083V190.968ZM385.083 231H379.083V237H385.083V231ZM420.507 231H426.507V225H420.507V231ZM420.507 263.832V269.832H426.507V263.832H420.507ZM385.083 263.832V257.832H379.083V263.832H385.083ZM387.099 339.288L381.507 341.463L381.528 341.518L381.551 341.572L387.099 339.288ZM397.179 343.896L397.021 337.898L396.993 337.899L396.965 337.9L397.179 343.896ZM419.067 343.32L425.058 342.984L424.732 337.169L418.909 337.322L419.067 343.32ZM420.795 374.136L422.112 379.99L427.07 378.874L426.786 373.8L420.795 374.136ZM402.651 377.592L401.875 371.642L401.858 371.645L401.84 371.647L402.651 377.592ZM389.691 372.456C379.045 372.456 371.582 370.782 366.713 368.043L360.829 378.501C368.248 382.674 378.065 384.456 389.691 384.456V372.456ZM366.713 368.043C362.08 365.437 358.503 361.083 356.201 354.341L344.845 358.219C347.919 367.221 353.174 374.195 360.829 378.501L366.713 368.043ZM356.201 354.341C353.821 347.371 352.491 337.276 352.491 323.736H340.491C340.491 337.844 341.849 349.445 344.845 358.219L356.201 354.341ZM352.491 323.736V263.832H340.491V323.736H352.491ZM346.491 257.832H329.499V269.832H346.491V257.832ZM335.499 263.832V231H323.499V263.832H335.499ZM329.499 237H346.491V225H329.499V237ZM352.491 231V190.968H340.491V231H352.491ZM346.491 196.968H385.083V184.968H346.491V196.968ZM379.083 190.968V231H391.083V190.968H379.083ZM385.083 237H420.507V225H385.083V237ZM414.507 231V263.832H426.507V231H414.507ZM420.507 257.832H385.083V269.832H420.507V257.832ZM379.083 263.832V322.872H391.083V263.832H379.083ZM379.083 322.872C379.083 330.503 379.738 336.915 381.507 341.463L392.691 337.113C391.772 334.749 391.083 330.217 391.083 322.872H379.083ZM381.551 341.572C384.326 348.312 391.046 350.119 397.393 349.892L396.965 337.9C394.815 337.977 393.655 337.675 393.122 337.431C392.754 337.263 392.711 337.159 392.647 337.003L381.551 341.572ZM397.337 349.894L419.225 349.318L418.909 337.322L397.021 337.898L397.337 349.894ZM413.076 343.656L414.804 374.472L426.786 373.8L425.058 342.984L413.076 343.656ZM419.478 368.282C411.864 369.996 406.022 371.101 401.875 371.642L403.427 383.542C408.112 382.931 414.366 381.732 422.112 379.99L419.478 368.282ZM401.84 371.647C397.894 372.185 393.846 372.456 389.691 372.456V384.456C394.368 384.456 398.96 384.151 403.462 383.537L401.84 371.647ZM451.109 371.544L452.356 365.675L452.305 365.664L452.254 365.654L451.109 371.544ZM440.741 369.528L434.792 368.75L434.06 374.341L439.596 375.418L440.741 369.528ZM444.773 338.712L445.572 332.765L439.605 331.964L438.824 337.934L444.773 338.712ZM526.277 303.288L529.391 298.159L529.391 298.159L526.277 303.288ZM499.205 292.92L500.865 287.154L500.84 287.147L500.815 287.14L499.205 292.92ZM463.205 278.808L460.118 283.953L460.143 283.968L460.168 283.982L463.205 278.808ZM444.197 260.376L438.919 263.229L438.949 263.284L438.979 263.338L444.197 260.376ZM530.885 177.432L530.109 183.382L530.173 183.39L530.237 183.397L530.885 177.432ZM569.765 183.48L575.735 184.082L576.293 178.557L570.827 177.575L569.765 183.48ZM566.597 214.872L565.901 220.831L571.955 221.538L572.567 215.474L566.597 214.872ZM483.077 242.808L479.091 247.292L479.091 247.292L483.077 242.808ZM496.037 250.584L493.773 256.141L493.863 256.177L493.953 256.21L496.037 250.584ZM522.245 259.224L524.068 253.508L524.051 253.502L524.035 253.497L522.245 259.224ZM553.061 272.472L549.857 277.545L549.857 277.545L553.061 272.472ZM568.901 289.752L563.476 292.314L563.49 292.344L563.504 292.373L568.901 289.752ZM555.365 362.328L551.414 357.813L551.397 357.828L551.379 357.844L555.365 362.328ZM506.117 372.456C491.708 372.456 473.818 370.233 452.356 365.675L449.863 377.413C471.793 382.071 490.574 384.456 506.117 384.456V372.456ZM452.254 365.654L441.886 363.638L439.596 375.418L449.964 377.434L452.254 365.654ZM446.691 370.306L450.723 339.49L438.824 337.934L434.792 368.75L446.691 370.306ZM443.974 344.659C469.776 348.124 489.773 349.896 503.813 349.896V337.896C490.589 337.896 471.226 336.212 445.572 332.765L443.974 344.659ZM503.813 349.896C514.67 349.896 523.93 347.666 530.542 342.176C537.368 336.51 540.341 328.249 540.341 318.552H528.341C528.341 325.751 526.227 330.162 522.877 332.944C519.313 335.902 513.308 337.896 503.813 337.896V349.896ZM540.341 318.552C540.341 309.793 536.762 302.635 529.391 298.159L523.163 308.417C526.544 310.469 528.341 313.487 528.341 318.552H540.341ZM529.391 298.159C523.293 294.457 513.617 290.825 500.865 287.154L497.545 298.686C510.138 302.311 518.51 305.591 523.163 308.417L529.391 298.159ZM500.815 287.14C485.91 282.989 474.455 278.454 466.242 273.633L460.168 283.982C469.619 289.53 482.165 294.403 497.596 298.7L500.815 287.14ZM466.292 273.663C458.334 268.888 452.831 263.432 449.415 257.414L438.979 263.338C443.628 271.528 450.797 278.36 460.118 283.953L466.292 273.663ZM449.475 257.523C446.233 251.524 444.437 243.74 444.437 233.88H432.437C432.437 245.139 434.482 255.02 438.919 263.229L449.475 257.523ZM444.437 233.88C444.437 215.96 449.846 203.363 459.854 194.995L452.157 185.789C438.741 197.005 432.437 213.4 432.437 233.88H444.437ZM459.854 194.995C470.136 186.398 485.004 181.704 505.253 181.704V169.704C483.262 169.704 465.298 174.802 452.157 185.789L459.854 194.995ZM505.253 181.704C513.23 181.704 521.515 182.261 530.109 183.382L531.661 171.482C522.592 170.299 513.788 169.704 505.253 169.704V181.704ZM530.237 183.397C538.855 184.334 551.65 186.319 568.704 189.385L570.827 177.575C553.705 174.497 540.579 172.45 531.534 171.467L530.237 183.397ZM563.796 182.878L560.628 214.27L572.567 215.474L575.735 184.082L563.796 182.878ZM567.293 208.912C540.968 205.838 521.565 204.264 509.285 204.264V216.264C520.813 216.264 539.619 217.762 565.901 220.831L567.293 208.912ZM509.285 204.264C498.351 204.264 489.105 206.035 482.434 210.442C475.327 215.136 471.893 222.316 471.893 231H483.893C483.893 225.86 485.691 222.672 489.048 220.454C492.841 217.949 499.291 216.264 509.285 216.264V204.264ZM471.893 231C471.893 237.44 474.3 243.033 479.091 247.292L487.063 238.324C484.943 236.439 483.893 234.16 483.893 231H471.893ZM479.091 247.292C483.151 250.901 488.087 253.824 493.773 256.141L498.301 245.027C493.619 243.12 489.916 240.859 487.063 238.324L479.091 247.292ZM493.953 256.21C499.297 258.189 508.163 261.11 520.456 264.951L524.035 253.497C511.751 249.658 503.146 246.818 498.121 244.958L493.953 256.21ZM520.423 264.94C533.442 269.092 543.173 273.323 549.857 277.545L556.265 267.399C548.358 262.405 537.545 257.804 524.068 253.508L520.423 264.94ZM549.857 277.545C556.317 281.625 560.759 286.562 563.476 292.314L574.327 287.19C570.515 279.118 564.397 272.535 556.265 267.399L549.857 277.545ZM563.504 292.373C566.236 297.998 567.797 305.746 567.797 315.96H579.797C579.797 304.67 578.094 294.946 574.298 287.131L563.504 292.373ZM567.797 315.96C567.797 334.83 562.102 348.461 551.414 357.813L559.316 366.843C573.205 354.691 579.797 337.41 579.797 315.96H567.797ZM551.379 357.844C540.662 367.369 525.809 372.456 506.117 372.456V384.456C527.897 384.456 545.876 378.791 559.351 366.812L551.379 357.844ZM619.862 370.968L616.349 375.832L616.38 375.855L616.412 375.877L619.862 370.968ZM605.174 347.928L610.955 346.322L605.174 347.928ZM600.854 231V225H594.854V231H600.854ZM639.446 231H645.446V225H639.446V231ZM640.886 330.36L634.986 331.453L634.99 331.473L634.993 331.493L640.886 330.36ZM646.646 341.016L643.097 345.854L643.277 345.986L643.466 346.104L646.646 341.016ZM672.278 342.744L671.041 336.873L671.009 336.88L670.976 336.887L672.278 342.744ZM687.254 338.712L688.994 344.454L693.254 343.163V338.712H687.254ZM687.254 231V225H681.254V231H687.254ZM725.846 231H731.846V225H725.846V231ZM725.846 375V381H731.846V375H725.846ZM687.542 375H681.542V381H687.542V375ZM687.542 366.936H693.542V356.81L684.66 361.673L687.542 366.936ZM666.806 375.864L665.26 370.067L665.143 370.098L665.027 370.134L666.806 375.864ZM648.95 372.456C637.402 372.456 629.064 370.102 623.311 366.059L616.412 375.877C624.867 381.818 635.921 384.456 648.95 384.456V372.456ZM623.374 366.104C617.829 362.099 613.568 355.729 610.955 346.322L599.392 349.534C602.539 360.863 608.07 369.853 616.349 375.832L623.374 366.104ZM610.955 346.322C608.28 336.695 606.854 323.479 606.854 306.456H594.854C594.854 323.993 596.307 338.425 599.392 349.534L610.955 346.322ZM606.854 306.456V231H594.854V306.456H606.854ZM600.854 237H639.446V225H600.854V237ZM633.446 231V307.032H645.446V231H633.446ZM633.446 307.032C633.446 317.487 633.922 325.71 634.986 331.453L646.785 329.267C645.929 324.642 645.446 317.313 645.446 307.032H633.446ZM634.993 331.493C636.119 337.344 638.564 342.53 643.097 345.854L650.194 336.178C648.967 335.278 647.572 333.36 646.778 329.227L634.993 331.493ZM643.466 346.104C647.945 348.904 653.895 349.896 660.469 349.896V337.896C654.756 337.896 651.49 336.968 649.825 335.928L643.466 346.104ZM660.469 349.896C665.221 349.896 669.606 349.484 673.579 348.601L670.976 336.887C668.037 337.54 664.55 337.896 660.469 337.896V349.896ZM673.514 348.615C677.413 347.794 682.597 346.392 688.994 344.454L685.513 332.97C679.238 334.872 674.438 336.158 671.041 336.873L673.514 348.615ZM693.254 338.712V231H681.254V338.712H693.254ZM687.254 237H725.846V225H687.254V237ZM719.846 231V375H731.846V231H719.846ZM725.846 369H687.542V381H725.846V369ZM693.542 375V366.936H681.542V375H693.542ZM684.66 361.673C676.816 365.969 670.375 368.702 665.26 370.067L668.351 381.661C674.756 379.954 682.139 376.735 690.423 372.199L684.66 361.673ZM665.027 370.134C660.083 371.668 654.735 372.456 648.95 372.456V384.456C655.836 384.456 662.392 383.516 668.584 381.594L665.027 370.134ZM772.425 375.576L771.797 381.543L771.81 381.544L772.425 375.576ZM761.481 374.424H755.481V379.826L760.853 380.391L761.481 374.424ZM761.481 173.4V167.4H755.481V173.4H761.481ZM800.073 173.4H806.073V167.4H800.073V173.4ZM800.073 235.32H794.073V244.139L802.276 240.901L800.073 235.32ZM817.929 229.272L816.474 223.451L816.474 223.451L817.929 229.272ZM875.817 245.112L871.026 248.725L871.045 248.749L871.064 248.774L875.817 245.112ZM882.441 347.352L876.911 345.024L876.894 345.065L876.877 345.107L882.441 347.352ZM860.841 371.256L863.441 376.664L863.483 376.643L863.524 376.623L860.841 371.256ZM843.273 334.968L848.017 338.641L848.045 338.605L848.073 338.568L843.273 334.968ZM843.849 271.608L838.787 274.829L838.844 274.919L838.905 275.007L843.849 271.608ZM800.073 265.848L798.591 260.034L794.073 261.186V265.848H800.073ZM800.073 342.744H794.073V348.187L799.49 348.716L800.073 342.744ZM820.809 372.456C807.442 372.456 791.529 371.514 773.04 369.608L771.81 381.544C790.569 383.478 806.912 384.456 820.809 384.456V372.456ZM773.053 369.609L762.109 368.457L760.853 380.391L771.797 381.543L773.053 369.609ZM767.481 374.424V173.4H755.481V374.424H767.481ZM761.481 179.4H800.073V167.4H761.481V179.4ZM794.073 173.4V235.32H806.073V173.4H794.073ZM802.276 240.901C809.463 238.064 815.14 236.154 819.384 235.093L816.474 223.451C811.502 224.694 805.275 226.816 797.87 229.739L802.276 240.901ZM819.384 235.093C823.401 234.089 828.268 233.544 834.057 233.544V221.544C827.558 221.544 821.673 222.151 816.474 223.451L819.384 235.093ZM834.057 233.544C851.792 233.544 863.651 238.944 871.026 248.725L880.608 241.499C870.319 227.856 854.338 221.544 834.057 221.544V233.544ZM871.064 248.774C878.85 258.879 883.353 276.409 883.353 302.712H895.353C895.353 275.639 890.832 254.769 880.57 241.45L871.064 248.774ZM883.353 302.712C883.353 321.143 881.081 335.121 876.911 345.024L887.971 349.68C893.017 337.695 895.353 321.913 895.353 302.712H883.353ZM876.877 345.107C872.974 354.779 866.754 361.592 858.158 365.889L863.524 376.623C874.896 370.936 883.076 361.813 888.005 349.597L876.877 345.107ZM858.241 365.848C849.375 370.111 837.03 372.456 820.809 372.456V384.456C837.997 384.456 852.339 382.001 863.441 376.664L858.241 365.848ZM818.505 349.896C831.177 349.896 841.741 346.748 848.017 338.641L838.529 331.295C835.589 335.092 829.641 337.896 818.505 337.896V349.896ZM848.073 338.568C853.92 330.772 856.185 318.401 856.185 303H844.185C844.185 317.935 841.842 326.876 838.473 331.368L848.073 338.568ZM856.185 303C856.185 287.995 854.109 275.94 848.793 268.209L838.905 275.007C842.037 279.564 844.185 288.437 844.185 303H856.185ZM848.911 268.387C843.543 259.951 834.861 256.104 824.265 256.104V268.104C831.717 268.104 836.091 270.593 838.787 274.829L848.911 268.387ZM824.265 256.104C817.224 256.104 808.617 257.478 798.591 260.034L801.555 271.662C811.113 269.226 818.634 268.104 824.265 268.104V256.104ZM794.073 265.848V342.744H806.073V265.848H794.073ZM799.49 348.716C807.431 349.49 813.8 349.896 818.505 349.896V337.896C814.378 337.896 808.46 337.534 800.656 336.772L799.49 348.716Z" fill="white"/>
</svg>
